<svg width="22" height="22" viewBox="0 0 22 22" fill="none" xmlns="http://www.w3.org/2000/svg">
<path d="M8.27237 19.1818C8.77445 19.1818 9.18146 18.7748 9.18146 18.2727C9.18146 17.7706 8.77445 17.3636 8.27237 17.3636C7.7703 17.3636 7.36328 17.7706 7.36328 18.2727C7.36328 18.7748 7.7703 19.1818 8.27237 19.1818Z" stroke="#A6876A" stroke-width="1.75" stroke-linecap="round" stroke-linejoin="round"/>
<path d="M17.3642 19.1818C17.8662 19.1818 18.2733 18.7748 18.2733 18.2727C18.2733 17.7706 17.8662 17.3636 17.3642 17.3636C16.8621 17.3636 16.4551 17.7706 16.4551 18.2727C16.4551 18.7748 16.8621 19.1818 17.3642 19.1818Z" stroke="#A6876A" stroke-width="1.75" stroke-linecap="round" stroke-linejoin="round"/>
<path d="M1.83398 1.83333H5.16732L7.40065 12.9917C7.47686 13.3753 7.68557 13.72 7.99027 13.9652C8.29497 14.2105 8.67623 14.3408 9.06732 14.3333H17.1673C17.5584 14.3408 17.9397 14.2105 18.2444 13.9652C18.5491 13.72 18.7578 13.3753 18.834 12.9917L20.1673 6H6.00065" stroke="#A6876A" stroke-width="1.75" stroke-linecap="round" stroke-linejoin="round"/>
</svg>
