<svg width="170" height="62" viewBox="0 0 170 62" fill="none" xmlns="http://www.w3.org/2000/svg">
<path d="M15.4512 62L0.000930519 46.5498V31.1066H15.4512V62Z" fill="black"/>
<path d="M61.8011 31.1049V46.5481H30.8934L15.4502 31.1049L0 15.6546V0.204365H15.4502L61.8011 0.20437V15.6546H30.9005L15.4502 0.204365L15.4502 31.1049H61.8011Z" fill="black"/>
<path fill-rule="evenodd" clip-rule="evenodd" d="M165.7 1.3926V4.24801H166.449V3.23808H166.606L166.771 3.24853C166.884 3.25543 166.97 3.27059 167.026 3.29391C167.128 3.33353 167.197 3.40347 167.235 3.50363C167.258 3.56416 167.274 3.68073 167.282 3.85313C167.291 4.02564 167.306 4.15715 167.329 4.24801H168.043L168.016 4.16772C168.007 4.1397 167.999 4.11179 167.996 4.08387C167.992 4.05585 167.99 4.02783 167.99 3.99992V3.74482C167.99 3.45355 167.906 3.24007 167.739 3.10426C167.647 3.0318 167.512 2.97671 167.333 2.93918C167.529 2.91816 167.694 2.8547 167.828 2.74786C167.962 2.64122 168.029 2.46788 168.029 2.22794C168.029 1.91336 167.901 1.68618 167.647 1.5464C167.499 1.46485 167.311 1.41592 167.085 1.39961C167.045 1.39721 166.848 1.39554 166.496 1.39438C166.143 1.39323 165.878 1.3926 165.7 1.3926ZM166.631 1.8959C166.817 1.8959 166.961 1.91566 167.064 1.95528C167.217 2.01592 167.295 2.12423 167.295 2.28042C167.295 2.43641 167.246 2.54942 167.147 2.61937C167.05 2.6892 166.914 2.72422 166.739 2.72422H166.449V1.8959H166.631Z" fill="black"/>
<path fill-rule="evenodd" clip-rule="evenodd" d="M166.829 5.39093C167.531 5.39093 168.132 5.14868 168.633 4.664C169.148 4.16301 169.406 3.5467 169.406 2.81508C169.406 2.10446 169.154 1.49747 168.651 0.994172C168.147 0.490878 167.54 0.239235 166.829 0.239235C166.151 0.239235 165.561 0.472165 165.058 0.938239C164.522 1.43683 164.253 2.06254 164.253 2.81508C164.253 3.5398 164.502 4.15026 164.998 4.64654C165.494 5.14283 166.105 5.39093 166.829 5.39093ZM164.702 2.81508C164.702 2.23954 164.907 1.74211 165.317 1.32277C165.733 0.894015 166.238 0.679589 166.829 0.679589C167.414 0.679589 167.916 0.894015 168.333 1.32277C168.745 1.74441 168.952 2.24195 168.952 2.81508C168.952 3.40462 168.744 3.91022 168.329 4.33196C167.914 4.75141 167.414 4.96113 166.829 4.96113C166.243 4.96113 165.741 4.75256 165.326 4.33551C164.91 3.91837 164.702 3.41163 164.702 2.81508Z" fill="black"/>
<path d="M79.9422 0.239434V2.10855H71.7727V7.96777H78.7128V9.81538H71.7727V15.696H69.6212V0.239434H79.9422Z" fill="black"/>
<path fill-rule="evenodd" clip-rule="evenodd" d="M94.2872 2.49807V8.78443L94.2017 8.78799L92.0783 8.80933L94.2872 11.018V15.6996H91.8759V9.65284H84.6241V15.6996H82.4688V0.239439H92.0284L92.0538 0.264505L94.2872 2.49807ZM91.9038 2.10855H84.6241V7.78017H91.9038V2.10855Z" fill="black"/>
<path fill-rule="evenodd" clip-rule="evenodd" d="M110.319 15.5781L105.116 0.300247L105.095 0.239434H101.435L101.414 0.300247L96.1921 15.5781L96.1489 15.696H98.3756L98.3968 15.6353L100.369 9.84578H106.138L108.089 15.6353L108.111 15.696H110.359L110.319 15.5781ZM105.491 7.97675H100.995L103.254 1.34381L105.491 7.97675Z" fill="black"/>
<path d="M125.772 9.70273L125.783 9.60279H123.632L123.621 9.68138C123.274 12.4939 121.527 14.0449 118.703 14.0449C115.476 14.0449 113.55 11.7684 113.55 7.9588C113.55 4.15984 115.476 1.89054 118.703 1.89054C121.53 1.89054 123.274 3.43441 123.621 6.23621L123.632 6.31134H125.783L125.772 6.21123C125.304 2.32301 122.663 0 118.703 0C114.322 0 111.377 3.19853 111.377 7.9588C111.377 12.7298 114.322 15.9355 118.703 15.9355C122.663 15.9355 125.308 13.6054 125.772 9.70273Z" fill="black"/>
<path d="M139.446 0.239434V2.10857H134.2V15.696H132.052V2.10857H126.783V0.239434H139.446Z" fill="black"/>
<path fill-rule="evenodd" clip-rule="evenodd" d="M152.615 15.5783L152.654 15.6962H150.405L150.388 15.6355L148.433 9.84597H142.668L140.696 15.6355L140.674 15.6962H138.448L138.487 15.5783L143.712 0.300524L143.734 0.23972H147.393L152.615 15.5783ZM145.552 1.344L143.291 7.97696H147.789L145.552 1.344Z" fill="black"/>
<path d="M164.253 13.8268L164.25 15.6959H154.45V0.23924H156.602V13.8268H164.253Z" fill="black"/>
<path fill-rule="evenodd" clip-rule="evenodd" d="M99.1913 23.2526V25.6832L98.3647 25.6917L98.23 25.6928L98.3257 25.7887L99.1913 26.6532V28.4417H98.3418V26.0281H95.3333V28.4417H94.5863V22.3841H98.3223L99.1913 23.2526ZM95.3333 25.3945H98.3528V23.0166H95.3333V25.3945Z" fill="black"/>
<path d="M105.949 34.4646C105.949 32.5257 107.023 31.2341 108.883 31.2341C110.376 31.2341 111.379 32.107 111.58 33.5303H110.778C110.637 32.5086 109.965 31.9147 108.91 31.9147C107.504 31.9147 106.753 32.9454 106.753 34.4817C106.753 35.8085 107.329 36.8998 108.874 36.8998C110.227 36.8998 110.943 36.1578 110.899 34.7868H108.516V34.1758H111.711V37.4847H110.917V36.2535C110.742 36.786 110.166 37.5804 108.717 37.5804C106.849 37.5804 105.949 36.2364 105.949 34.4646Z" fill="black"/>
<path d="M131.365 22.2399C129.505 22.2399 128.431 23.5316 128.431 25.4703C128.431 27.2422 129.33 28.5862 131.198 28.5862C132.648 28.5862 133.224 27.7919 133.398 27.2594V28.4905H134.193V25.1816H130.998V25.7927H133.381C133.424 27.1637 132.709 27.9056 131.356 27.9056C129.81 27.9056 129.234 26.8144 129.234 25.4875C129.234 23.9513 129.986 22.9206 131.391 22.9206C132.447 22.9206 133.119 23.5144 133.259 24.5362H134.062C133.861 23.1128 132.858 22.2399 131.365 22.2399Z" fill="black"/>
<path d="M89.7822 43.0666C89.7822 41.1279 90.8561 39.8362 92.7152 39.8362C94.2085 39.8362 95.2121 40.709 95.4129 42.1324H94.6099C94.4702 41.1107 93.7977 40.5168 92.7415 40.5168C91.3364 40.5168 90.5851 41.5475 90.5851 43.0838C90.5851 44.4106 91.161 45.5018 92.7068 45.5018C94.0594 45.5018 94.7751 44.7599 94.7319 43.3889H92.3485V42.7778H95.5433V46.0868H94.7488V44.8555C94.5752 45.3882 93.9984 46.1824 92.5492 46.1824C90.6808 46.1824 89.7822 44.8384 89.7822 43.0666Z" fill="black"/>
<path fill-rule="evenodd" clip-rule="evenodd" d="M72.3924 39.9851C72.1239 39.9443 71.8235 39.9238 71.4908 39.9238H69.5301V46.0949H71.4908C71.8235 46.0949 72.1239 46.0745 72.3924 46.0337C72.6607 45.9929 72.9365 45.9054 73.2197 45.771C73.5026 45.6369 73.7389 45.4603 73.9287 45.2414C74.1182 45.0226 74.2744 44.7237 74.397 44.3442C74.5195 43.9649 74.5808 43.5185 74.5808 43.005C74.5808 42.4915 74.5195 42.0451 74.397 41.6657C74.2744 41.2864 74.1182 40.9873 73.9287 40.7685C73.7389 40.5497 73.5026 40.3745 73.2197 40.2432C72.9365 40.112 72.6607 40.0259 72.3924 39.9851ZM72.0511 45.4559C71.8876 45.4734 71.7009 45.4821 71.4908 45.4821H70.2479V40.5365H71.4908C71.7475 40.5365 71.9708 40.5482 72.1604 40.5714C72.35 40.5949 72.5601 40.6547 72.7908 40.751C73.0211 40.8472 73.2078 40.98 73.3509 41.1493C73.4938 41.3186 73.615 41.5606 73.7142 41.8758C73.8134 42.1909 73.863 42.5673 73.863 43.005C73.863 43.3726 73.8308 43.6979 73.7667 43.981C73.7024 44.2641 73.6092 44.493 73.4865 44.6681C73.3641 44.8432 73.2328 44.9876 73.0927 45.1014C72.9526 45.2153 72.7848 45.2983 72.5893 45.3509C72.3939 45.4034 72.2143 45.4383 72.0511 45.4559Z" fill="black"/>
<path d="M75.5963 46.0949V39.9238H79.4215V40.5365H76.314V42.6986H78.9838V43.3113H76.314V45.4821H79.4215V46.0949H75.5963Z" fill="black"/>
<path d="M82.8791 46.1824C84.4606 46.1824 85.2517 45.634 85.2517 44.5368C85.2517 44.3676 85.2254 44.2116 85.1729 44.0684C85.1204 43.9256 85.0585 43.8015 84.9891 43.6965C84.9188 43.5914 84.8146 43.4895 84.6783 43.3901C84.541 43.2909 84.4182 43.2093 84.3107 43.145C84.2023 43.0808 84.0507 43.0123 83.855 42.9393C83.6596 42.8664 83.505 42.811 83.3912 42.773C83.2774 42.735 83.1124 42.6841 82.8966 42.6198C82.7857 42.5848 82.701 42.5585 82.6428 42.541C82.0767 42.3659 81.6755 42.1982 81.4392 42.0376C81.2029 41.8772 81.0847 41.6452 81.0847 41.3418C81.0847 40.7466 81.5749 40.4489 82.5552 40.4489C83.063 40.4489 83.4772 40.5745 83.7982 40.8254C84.1193 41.0762 84.2793 41.4527 84.2793 41.9546H84.9976C84.9976 41.6862 84.9535 41.4324 84.8663 41.193C84.7782 40.9538 84.6444 40.7291 84.4631 40.5189C84.2827 40.3089 84.0286 40.1426 83.7017 40.0201C83.3751 39.8974 82.9929 39.8362 82.5552 39.8362C81.0963 39.8362 80.3669 40.3439 80.3669 41.3593C80.3669 41.6219 80.4151 41.8494 80.5113 42.042C80.6076 42.2347 80.7622 42.3996 80.9753 42.5367C81.1882 42.6739 81.3999 42.7832 81.6099 42.8649C81.82 42.9466 82.1058 43.043 82.4677 43.1538C82.5378 43.1772 82.6457 43.2093 82.7916 43.25C82.9374 43.2909 83.0482 43.3216 83.1242 43.3419C83.2 43.3625 83.3037 43.3944 83.435 43.4382C83.5663 43.482 83.667 43.5214 83.7373 43.5564C83.8067 43.5914 83.8914 43.6352 83.9905 43.6877C84.0896 43.7402 84.1658 43.7958 84.2183 43.854C84.2709 43.9124 84.3251 43.9766 84.3801 44.0466C84.436 44.1166 84.475 44.1969 84.4987 44.2873C84.5216 44.3779 84.5334 44.4726 84.5334 44.5718C84.5334 44.9279 84.3945 45.1832 84.1176 45.3378C83.8406 45.4925 83.4276 45.5697 82.8791 45.5697C82.173 45.5697 81.6507 45.4443 81.3123 45.1933C80.9737 44.9424 80.8045 44.4726 80.8045 43.7839H80.0868C80.0868 44.5602 80.2968 45.1539 80.717 45.5653C81.1372 45.9768 81.8579 46.1824 82.8791 46.1824Z" fill="black"/>
<path d="M89.3214 40.5365H87.9476V45.4821H89.3214V46.0949H85.8462V45.4821H87.2293V40.5365H85.8462V39.9238H89.3214V40.5365Z" fill="black"/>
<path d="M96.7705 39.9238V46.0949H97.4888V40.1251L100.561 46.0949H101.918V39.9238H101.209V45.8936L98.1274 39.9238H96.7705Z" fill="black"/>
<path d="M99.9417 37.4928V31.3217H101.299L104.38 37.2915V31.3217H105.089V37.4928H103.732L100.66 31.523V37.4928H99.9417Z" fill="black"/>
<path d="M82.5767 22.3275V28.4987H83.2944V22.5289L86.3671 28.4987H87.7239V22.3275H87.015V28.2974L83.9337 22.3275H82.5767Z" fill="black"/>
<path d="M122.225 28.4987V22.3275H123.582L126.663 28.2974V22.3275H127.372V28.4987H126.016L122.943 22.5289V28.4987H122.225Z" fill="black"/>
<path fill-rule="evenodd" clip-rule="evenodd" d="M69.5301 31.3217V37.4928H71.5609C72.3545 37.4928 72.9585 37.3689 73.3728 37.1209C73.7871 36.8729 73.9943 36.4512 73.9943 35.856C73.9943 34.8755 73.4311 34.2604 72.3049 34.2369C72.6607 34.2137 72.9555 33.9974 73.189 33.7814C73.4223 33.5656 73.5391 33.2504 73.5391 32.836C73.5391 32.2583 73.3465 31.8615 72.9614 31.6456C72.5762 31.4298 71.978 31.3217 71.1669 31.3217H69.5301ZM71.5871 36.8801H70.2479V34.5867H71.5871C72.1531 34.5867 72.5762 34.6713 72.8564 34.8405C73.1365 35.0098 73.2765 35.3076 73.2765 35.7334C73.2765 36.1886 73.1393 36.4936 72.8651 36.6482C72.5908 36.8028 72.1648 36.8801 71.5871 36.8801ZM71.1932 33.974H70.2479V31.9345H71.1932C71.4265 31.9345 71.6134 31.9389 71.7534 31.9476C71.8935 31.9563 72.0408 31.9797 72.1955 32.0176C72.35 32.0557 72.4669 32.1095 72.5456 32.1795C72.6244 32.2496 72.6901 32.3488 72.7426 32.4771C72.7951 32.6056 72.8213 32.7631 72.8213 32.9498C72.8213 33.3583 72.6901 33.6312 72.4274 33.7683C72.1648 33.9055 71.7534 33.974 71.1932 33.974Z" fill="black"/>
<path d="M74.966 35.1995V31.3217H75.6838V35.0856C75.6838 35.7334 75.8151 36.2092 76.0777 36.5125C76.3403 36.816 76.7837 36.9677 77.4082 36.9677C78.0326 36.9677 78.4775 36.816 78.7431 36.5125C79.0086 36.2092 79.1413 35.7334 79.1413 35.0856V31.3217H79.8591V35.1995C79.8591 36.7869 79.0421 37.5804 77.4082 37.5804C75.7801 37.5804 74.966 36.7869 74.966 35.1995Z" fill="black"/>
<path d="M82.8003 31.9345H84.1743V31.3217H80.6995V31.9345H82.0825V36.8801H80.6995V37.4928H84.1743V36.8801H82.8003V31.9345Z" fill="black"/>
<path d="M85.2602 37.4928V31.3217H85.9775V36.8801H89.0851V37.4928H85.2602Z" fill="black"/>
<path fill-rule="evenodd" clip-rule="evenodd" d="M92.8754 31.3829C92.6069 31.3423 92.307 31.3217 91.9742 31.3217H90.0134V37.4928H91.9742C92.307 37.4928 92.6069 37.4725 92.8754 37.4316C93.1438 37.3909 93.4199 37.3034 93.7028 37.169C93.9857 37.0349 94.222 36.8583 94.4118 36.6394C94.6015 36.4206 94.7573 36.1215 94.8801 35.7422C95.003 35.3629 95.0639 34.9165 95.0639 34.4029C95.0639 33.8895 95.003 33.443 94.8801 33.0637C94.7573 32.6843 94.6015 32.3852 94.4118 32.1664C94.222 31.9476 93.9857 31.7725 93.7028 31.6412C93.4199 31.5099 93.1438 31.4239 92.8754 31.3829ZM92.534 36.8539C92.3705 36.8714 92.1842 36.8801 91.9742 36.8801H90.7308V31.9345H91.9742C92.2308 31.9345 92.4536 31.9462 92.6433 31.9694C92.833 31.9928 93.043 32.0525 93.2743 32.1489C93.5046 32.2452 93.691 32.3779 93.8341 32.5472C93.9773 32.7165 94.0984 32.9586 94.1975 33.2737C94.2966 33.5888 94.3465 33.9652 94.3465 34.4029C94.3465 34.7705 94.3144 35.0959 94.25 35.379C94.1856 35.662 94.0924 35.891 93.9696 36.066C93.8477 36.2412 93.7164 36.3856 93.5758 36.4993C93.436 36.6132 93.2683 36.6964 93.0727 36.7489C92.877 36.8014 92.6975 36.8364 92.534 36.8539Z" fill="black"/>
<path d="M98.9676 31.9345H97.5938V36.8801H98.9676V37.4928H95.4924V36.8801H96.8756V31.9345H95.4924V31.3217H98.9676V31.9345Z" fill="black"/>
<path d="M69.2056 25.4087C69.2056 26.3308 69.4653 27.0908 69.9847 27.689C70.504 28.2872 71.2072 28.5862 72.0943 28.5862C72.8763 28.5862 73.5138 28.366 74.007 27.9253C74.5 27.4848 74.7933 26.8793 74.8866 26.109H74.1689C74.0989 26.7042 73.8858 27.1638 73.5299 27.4877C73.1739 27.8115 72.6953 27.9735 72.0943 27.9735C71.394 27.9735 70.8571 27.7401 70.4837 27.2732C70.1102 26.8063 69.9235 26.1849 69.9235 25.4087C69.9235 24.6384 70.1102 24.02 70.4837 23.5529C70.8571 23.0862 71.394 22.8527 72.0943 22.8527C72.6953 22.8527 73.1739 23.0133 73.5299 23.3342C73.8858 23.6552 74.0989 24.1132 74.1689 24.7085H74.8866C74.7933 23.944 74.5 23.3415 74.007 22.9008C73.5138 22.4603 72.8763 22.2399 72.0943 22.2399C71.2072 22.2399 70.504 22.5376 69.9847 23.1328C69.4653 23.728 69.2056 24.4867 69.2056 25.4087Z" fill="black"/>
<path fill-rule="evenodd" clip-rule="evenodd" d="M75.7971 25.4087C75.7971 24.4867 76.0568 23.728 76.5761 23.1328C77.0955 22.5376 77.7987 22.2399 78.6858 22.2399C79.5668 22.2399 80.2658 22.5376 80.7822 23.1328C81.2986 23.728 81.5569 24.4867 81.5569 25.4087C81.5569 26.3366 81.2986 27.0981 80.7822 27.6934C80.2658 28.2886 79.5668 28.5862 78.6858 28.5862C77.7987 28.5862 77.0955 28.2886 76.5761 27.6934C76.0568 27.0981 75.7971 26.3366 75.7971 25.4087ZM76.5149 25.4087C76.5149 26.179 76.7001 26.7991 77.0708 27.2688C77.4412 27.7386 77.9796 27.9735 78.6858 27.9735C79.386 27.9735 79.92 27.7386 80.2876 27.2688C80.6553 26.7991 80.8391 26.179 80.8391 25.4087C80.8391 24.6443 80.6553 24.0272 80.2876 23.5573C79.92 23.0877 79.386 22.8527 78.6858 22.8527C77.9796 22.8527 77.4412 23.0877 77.0708 23.5573C76.7001 24.0272 76.5149 24.6443 76.5149 25.4087Z" fill="black"/>
<path d="M93.7417 22.9402V22.3275H88.7437V22.9402H90.8967V28.4987H91.6057V22.9402H93.7417Z" fill="black"/>
<path fill-rule="evenodd" clip-rule="evenodd" d="M104.78 28.4987L104 26.0827H101.524L100.753 28.4987H100.036L102.031 22.3275H103.502L105.489 28.4987H104.78ZM101.725 25.47H103.808L102.863 22.5289H102.661L101.725 25.47Z" fill="black"/>
<path d="M105.813 25.4087C105.813 26.3308 106.072 27.0908 106.591 27.689C107.111 28.2872 107.814 28.5862 108.701 28.5862C109.483 28.5862 110.121 28.366 110.614 27.9253C111.107 27.4848 111.4 26.8793 111.494 26.109H110.776C110.706 26.7042 110.493 27.1638 110.137 27.4877C109.781 27.8115 109.303 27.9735 108.701 27.9735C108.001 27.9735 107.464 27.7401 107.091 27.2732C106.718 26.8063 106.53 26.1849 106.53 25.4087C106.53 24.6384 106.718 24.02 107.091 23.5529C107.464 23.0862 108.001 22.8527 108.701 22.8527C109.303 22.8527 109.781 23.0133 110.137 23.3342C110.493 23.6552 110.706 24.1132 110.776 24.7085H111.494C111.4 23.944 111.107 23.3415 110.614 22.9008C110.121 22.4603 109.483 22.2399 108.701 22.2399C107.814 22.2399 107.111 22.5376 106.591 23.1328C106.072 23.728 105.813 24.4867 105.813 25.4087Z" fill="black"/>
<path d="M116.588 22.3275V22.9402H114.452V28.4987H113.743V22.9402H111.59V22.3275H116.588Z" fill="black"/>
<path d="M119.625 22.9402H121V22.3275H117.525V22.9402H118.907V27.886H117.525V28.4987H121V27.886H119.625V22.9402Z" fill="black"/>
</svg>
