<svg width="173" height="63" viewBox="0 0 173 63" fill="none" xmlns="http://www.w3.org/2000/svg">
<path d="M15.7004 63L0.000945527 47.3006V31.6083H15.7004V63Z" fill="white"/>
<path d="M62.7979 31.6066V47.2988H31.3917L15.6994 31.6066L0 15.9071V0.207661H15.6994L62.7979 0.207666V15.9071H31.3989L15.6994 0.207661L15.6994 31.6066H62.7979Z" fill="white"/>
<path fill-rule="evenodd" clip-rule="evenodd" d="M168.373 1.41506V4.31652H169.134V3.29031H169.293L169.461 3.30093C169.576 3.30794 169.663 3.32334 169.72 3.34704C169.824 3.3873 169.894 3.45837 169.932 3.56014C169.956 3.62165 169.972 3.7401 169.98 3.91528C169.989 4.09057 170.005 4.22421 170.028 4.31652H170.754L170.726 4.23494C170.716 4.20647 170.709 4.17811 170.706 4.14974C170.702 4.12127 170.699 4.0928 170.699 4.06443V3.80522C170.699 3.50925 170.614 3.29232 170.444 3.15433C170.351 3.0807 170.214 3.02472 170.032 2.98658C170.231 2.96523 170.399 2.90075 170.535 2.79218C170.671 2.68382 170.739 2.50768 170.739 2.26388C170.739 1.94422 170.609 1.71337 170.351 1.57134C170.2 1.48848 170.01 1.43876 169.779 1.42219C169.739 1.41974 169.539 1.41804 169.181 1.41687C168.822 1.4157 168.554 1.41506 168.373 1.41506ZM169.318 1.92648C169.508 1.92648 169.654 1.94655 169.758 1.98682C169.914 2.04843 169.993 2.15849 169.993 2.31721C169.993 2.4757 169.943 2.59054 169.843 2.66161C169.744 2.73258 169.606 2.76816 169.428 2.76816H169.134V1.92648H169.318Z" fill="white"/>
<path fill-rule="evenodd" clip-rule="evenodd" d="M169.52 5.47788C170.233 5.47788 170.844 5.23173 171.353 4.73923C171.877 4.23015 172.138 3.60391 172.138 2.86048C172.138 2.13841 171.882 1.52162 171.371 1.01021C170.859 0.498795 170.243 0.243094 169.52 0.243094C168.831 0.243094 168.232 0.479781 167.721 0.953372C167.176 1.46 166.903 2.09581 166.903 2.86048C166.903 3.59689 167.156 4.2172 167.659 4.72149C168.164 5.22578 168.784 5.47788 169.52 5.47788ZM167.358 2.86048C167.358 2.27566 167.567 1.7702 167.983 1.3441C168.406 0.908435 168.919 0.69055 169.52 0.69055C170.114 0.69055 170.624 0.908435 171.048 1.3441C171.466 1.77254 171.677 2.27811 171.677 2.86048C171.677 3.45954 171.465 3.97329 171.044 4.40183C170.622 4.82804 170.114 5.04115 169.52 5.04115C168.924 5.04115 168.414 4.82921 167.993 4.40544C167.57 3.98157 167.358 3.46665 167.358 2.86048Z" fill="white"/>
<path d="M81.2316 0.243296V2.14256H72.9303V8.09629H79.9823V9.97369H72.9303V15.9492H70.7442V0.243296H81.2316Z" fill="white"/>
<path fill-rule="evenodd" clip-rule="evenodd" d="M95.808 2.53837V8.92611L95.7211 8.92973L93.5634 8.95142L95.808 11.1957V15.9528H93.3578V9.80853H85.989V15.9528H83.7989V0.243301H93.5127L93.5385 0.268771L95.808 2.53837ZM93.3862 2.14256H85.989V7.90566H93.3862V2.14256Z" fill="white"/>
<path fill-rule="evenodd" clip-rule="evenodd" d="M112.098 15.8294L106.811 0.30509L106.79 0.243296H103.071L103.049 0.30509L97.7436 15.8294L97.6997 15.9492H99.9623L99.9838 15.8875L101.988 10.0046H107.85L109.832 15.8875L109.855 15.9492H112.139L112.098 15.8294ZM107.193 8.10541H102.624L104.92 1.36548L107.193 8.10541Z" fill="white"/>
<path d="M127.801 9.85922L127.812 9.75767H125.626L125.615 9.83753C125.263 12.6955 123.487 14.2715 120.618 14.2715C117.339 14.2715 115.382 11.9582 115.382 8.08716C115.382 4.22694 117.339 1.92103 120.618 1.92103C123.49 1.92103 125.263 3.48981 125.615 6.3368L125.626 6.41314H127.812L127.801 6.31141C127.325 2.36047 124.641 0 120.618 0C116.166 0 113.173 3.25012 113.173 8.08716C113.173 12.9351 116.166 16.1925 120.618 16.1925C124.641 16.1925 127.329 13.8249 127.801 9.85922Z" fill="white"/>
<path d="M141.695 0.243296V2.14258H136.364V15.9491H134.181V2.14258H128.828V0.243296H141.695Z" fill="white"/>
<path fill-rule="evenodd" clip-rule="evenodd" d="M155.076 15.8295L155.116 15.9494H152.831L152.814 15.8877L150.827 10.0048H144.97L142.966 15.8877L142.943 15.9494H140.681L140.72 15.8295L146.03 0.305371L146.052 0.243586H149.771L155.076 15.8295ZM147.9 1.36568L145.602 8.10562H150.173L147.9 1.36568Z" fill="white"/>
<path d="M166.902 14.0498L166.899 15.9491H156.941V0.243099H159.127V14.0498H166.902Z" fill="white"/>
<path fill-rule="evenodd" clip-rule="evenodd" d="M100.791 23.6276V26.0974L99.9512 26.1061L99.8143 26.1072L99.9116 26.2047L100.791 27.0831V28.9004H99.9279V26.4479H96.8709V28.9004H96.1119V22.7451H99.9081L100.791 23.6276ZM96.8709 25.8041H99.9391V23.3879H96.8709V25.8041Z" fill="white"/>
<path d="M107.658 35.0204C107.658 33.0503 108.749 31.7379 110.639 31.7379C112.156 31.7379 113.176 32.6248 113.38 34.0712H112.565C112.422 33.033 111.738 32.4295 110.666 32.4295C109.237 32.4295 108.475 33.4768 108.475 35.0378C108.475 36.3861 109.06 37.4949 110.63 37.4949C112.005 37.4949 112.732 36.741 112.688 35.3479H110.266V34.727H113.513V38.0893H112.706V36.8383C112.529 37.3794 111.942 38.1866 110.471 38.1866C108.572 38.1866 107.658 36.8208 107.658 35.0204Z" fill="white"/>
<path d="M133.484 22.5986C131.594 22.5986 130.503 23.9111 130.503 25.8811C130.503 27.6816 131.416 29.0473 133.315 29.0473C134.787 29.0473 135.373 28.2401 135.55 27.6991V28.95H136.357V25.5877H133.111V26.2087H135.532C135.576 27.6018 134.849 28.3556 133.475 28.3556C131.904 28.3556 131.319 27.2469 131.319 25.8986C131.319 24.3376 132.082 23.2903 133.51 23.2903C134.583 23.2903 135.267 23.8937 135.409 24.9319H136.224C136.02 23.4855 135.001 22.5986 133.484 22.5986Z" fill="white"/>
<path d="M91.2303 43.7612C91.2303 41.7913 92.3215 40.4787 94.2107 40.4787C95.728 40.4787 96.7478 41.3656 96.9518 42.812H96.1359C95.9939 41.7738 95.3105 41.1703 94.2373 41.1703C92.8095 41.1703 92.0461 42.2176 92.0461 43.7787C92.0461 45.1269 92.6314 46.2357 94.202 46.2357C95.5765 46.2357 96.3037 45.4818 96.2598 44.0887H93.838V43.4678H97.0843V46.8301H96.277V45.579C96.1006 46.1203 95.5145 46.9273 94.042 46.9273C92.1434 46.9273 91.2303 45.5616 91.2303 43.7612Z" fill="white"/>
<path fill-rule="evenodd" clip-rule="evenodd" d="M73.56 40.63C73.2872 40.5885 72.9819 40.5677 72.6439 40.5677H70.6515V46.8384H72.6439C72.9819 46.8384 73.2872 46.8177 73.56 46.7762C73.8327 46.7347 74.1129 46.6458 74.4006 46.5093C74.6881 46.373 74.9283 46.1935 75.1211 45.9711C75.3137 45.7487 75.4724 45.445 75.5969 45.0595C75.7214 44.6741 75.7837 44.2204 75.7837 43.6986C75.7837 43.1768 75.7214 42.7232 75.5969 42.3377C75.4724 41.9523 75.3137 41.6484 75.1211 41.426C74.9283 41.2037 74.6881 41.0257 74.4006 40.8922C74.1129 40.7589 73.8327 40.6715 73.56 40.63ZM73.2132 46.189C73.0471 46.2069 72.8573 46.2157 72.6439 46.2157H71.3809V41.1903H72.6439C72.9047 41.1903 73.1316 41.2022 73.3243 41.2258C73.5169 41.2497 73.7304 41.3104 73.9648 41.4083C74.1989 41.506 74.3886 41.641 74.534 41.813C74.6792 41.985 74.8023 42.231 74.9032 42.5512C75.0039 42.8714 75.0544 43.2538 75.0544 43.6986C75.0544 44.0721 75.0217 44.4027 74.9565 44.6903C74.8912 44.978 74.7964 45.2107 74.6718 45.3886C74.5474 45.5665 74.414 45.7132 74.2716 45.8289C74.1293 45.9445 73.9588 46.029 73.7601 46.0823C73.5615 46.1357 73.379 46.1712 73.2132 46.189Z" fill="white"/>
<path d="M76.8156 46.8384V40.5677H80.7025V41.1903H77.5449V43.3873H80.2578V44.0099H77.5449V46.2157H80.7025V46.8384H76.8156Z" fill="white"/>
<path d="M84.2159 46.9273C85.8228 46.9273 86.6267 46.37 86.6267 45.2552C86.6267 45.0832 86.6 44.9247 86.5466 44.7792C86.4933 44.634 86.4305 44.508 86.3599 44.4012C86.2884 44.2945 86.1826 44.1909 86.044 44.0899C85.9046 43.9892 85.7798 43.9062 85.6705 43.8409C85.5604 43.7756 85.4063 43.7061 85.2075 43.6319C85.0089 43.5578 84.8519 43.5015 84.7362 43.4629C84.6206 43.4243 84.453 43.3725 84.2337 43.3072C84.1209 43.2716 84.0349 43.245 83.9757 43.2271C83.4005 43.0493 82.9928 42.8788 82.7527 42.7157C82.5126 42.5527 82.3925 42.3169 82.3925 42.0086C82.3925 41.4038 82.8906 41.1013 83.8867 41.1013C84.4027 41.1013 84.8236 41.2289 85.1498 41.4838C85.476 41.7388 85.6387 42.1213 85.6387 42.6312H86.3685C86.3685 42.3586 86.3237 42.1007 86.2351 41.8574C86.1456 41.6143 86.0096 41.386 85.8254 41.1725C85.6421 40.959 85.3839 40.7901 85.0517 40.6655C84.7198 40.5409 84.3315 40.4787 83.8867 40.4787C82.4043 40.4787 81.6631 40.9946 81.6631 42.0264C81.6631 42.2933 81.7121 42.5244 81.8099 42.7201C81.9077 42.9159 82.0648 43.0834 82.2813 43.2228C82.4977 43.3622 82.7128 43.4733 82.9262 43.5563C83.1397 43.6393 83.4301 43.7372 83.7979 43.8498C83.869 43.8736 83.9787 43.9062 84.127 43.9476C84.2751 43.9892 84.3877 44.0203 84.4649 44.041C84.542 44.0619 84.6473 44.0943 84.7807 44.1388C84.9142 44.1833 85.0164 44.2233 85.0879 44.259C85.1584 44.2945 85.2445 44.339 85.3452 44.3924C85.4459 44.4457 85.5233 44.5022 85.5767 44.5613C85.6301 44.6207 85.6851 44.6859 85.7411 44.757C85.7979 44.8282 85.8375 44.9098 85.8616 45.0016C85.8848 45.0937 85.8969 45.1899 85.8969 45.2907C85.8969 45.6525 85.7557 45.912 85.4743 46.0691C85.1929 46.2262 84.7732 46.3047 84.2159 46.3047C83.4983 46.3047 82.9676 46.1772 82.6238 45.9222C82.2798 45.6673 82.1078 45.1899 82.1078 44.4901H81.3785C81.3785 45.2789 81.5919 45.8822 82.0189 46.3002C82.4459 46.7183 83.1782 46.9273 84.2159 46.9273Z" fill="white"/>
<path d="M90.762 41.1903H89.3661V46.2157H90.762V46.8384H87.2308V46.2157H88.6363V41.1903H87.2308V40.5677H90.762V41.1903Z" fill="white"/>
<path d="M98.3313 40.5677V46.8384H99.0611V40.7723L102.183 46.8384H103.561V40.5677H102.841V46.6338L99.7101 40.5677H98.3313Z" fill="white"/>
<path d="M101.554 38.0976V31.8269H102.932L106.063 37.893V31.8269H106.784V38.0976H105.405L102.284 32.0314V38.0976H101.554Z" fill="white"/>
<path d="M83.9086 22.6876V28.9584H84.6379V22.8922L87.7601 28.9584H89.1388V22.6876H88.4185V28.7538L85.2875 22.6876H83.9086Z" fill="white"/>
<path d="M124.196 28.9584V22.6876H125.575L128.706 28.7538V22.6876H129.426V28.9584H128.048L124.926 22.8922V28.9584H124.196Z" fill="white"/>
<path fill-rule="evenodd" clip-rule="evenodd" d="M70.6515 31.8269V38.0976H72.7151C73.5215 38.0976 74.1352 37.9717 74.5562 37.7196C74.9772 37.4676 75.1878 37.0392 75.1878 36.4343C75.1878 35.438 74.6154 34.8129 73.4711 34.7891C73.8327 34.7655 74.1322 34.5457 74.3695 34.3262C74.6066 34.107 74.7252 33.7867 74.7252 33.3656C74.7252 32.7786 74.5295 32.3754 74.1382 32.156C73.7468 31.9367 73.1389 31.8269 72.3148 31.8269H70.6515ZM72.7417 37.4749H71.3809V35.1445H72.7417C73.3168 35.1445 73.7468 35.2305 74.0315 35.4025C74.3161 35.5745 74.4584 35.877 74.4584 36.3098C74.4584 36.7723 74.3189 37.0822 74.0404 37.2393C73.7616 37.3964 73.3288 37.4749 72.7417 37.4749ZM72.3415 34.522H71.3809V32.4495H72.3415C72.5786 32.4495 72.7684 32.454 72.9107 32.4629C73.053 32.4717 73.2028 32.4955 73.3599 32.534C73.5169 32.5727 73.6357 32.6273 73.7157 32.6985C73.7958 32.7698 73.8625 32.8706 73.9158 33.0009C73.9692 33.1315 73.9959 33.2916 73.9959 33.4813C73.9959 33.8964 73.8625 34.1737 73.5956 34.3129C73.3288 34.4523 72.9107 34.522 72.3415 34.522Z" fill="white"/>
<path d="M76.1751 35.7672V31.8269H76.9045V35.6515C76.9045 36.3098 77.0379 36.7932 77.3048 37.1014C77.5716 37.4098 78.0221 37.564 78.6568 37.564C79.2911 37.564 79.7432 37.4098 80.0131 37.1014C80.2829 36.7932 80.4178 36.3098 80.4178 35.6515V31.8269H81.1472V35.7672C81.1472 37.3802 80.3169 38.1866 78.6568 38.1866C77.0024 38.1866 76.1751 37.3802 76.1751 35.7672Z" fill="white"/>
<path d="M84.1358 32.4495H85.5319V31.8269H82.0011V32.4495H83.4064V37.4749H82.0011V38.0976H85.5319V37.4749H84.1358V32.4495Z" fill="white"/>
<path d="M86.6353 38.0976V31.8269H87.3643V37.4749H90.522V38.0976H86.6353Z" fill="white"/>
<path fill-rule="evenodd" clip-rule="evenodd" d="M94.3733 31.8891C94.1005 31.8478 93.7958 31.8269 93.4576 31.8269H91.4652V38.0976H93.4576C93.7958 38.0976 94.1005 38.0769 94.3733 38.0353C94.6462 37.9939 94.9267 37.905 95.2142 37.7685C95.5016 37.6322 95.7417 37.4528 95.9345 37.2304C96.1273 37.008 96.2857 36.7041 96.4105 36.3187C96.5352 35.9332 96.5972 35.4797 96.5972 34.9578C96.5972 34.4361 96.5352 33.9824 96.4105 33.5969C96.2857 33.2115 96.1273 32.9076 95.9345 32.6852C95.7417 32.4629 95.5016 32.285 95.2142 32.1515C94.9267 32.0181 94.6462 31.9307 94.3733 31.8891ZM94.0265 37.4483C93.8604 37.4661 93.671 37.4749 93.4576 37.4749H92.1942V32.4495H93.4576C93.7184 32.4495 93.9447 32.4615 94.1375 32.4851C94.3303 32.5088 94.5437 32.5695 94.7787 32.6674C95.0128 32.7653 95.2021 32.9002 95.3476 33.0721C95.493 33.2442 95.6161 33.4902 95.7168 33.8104C95.8175 34.1305 95.8682 34.513 95.8682 34.9578C95.8682 35.3313 95.8355 35.662 95.7701 35.9496C95.7047 36.2372 95.6101 36.4699 95.4853 36.6477C95.3613 36.8257 95.2279 36.9725 95.0851 37.088C94.9431 37.2037 94.7727 37.2882 94.5739 37.3416C94.375 37.3949 94.1926 37.4305 94.0265 37.4483Z" fill="white"/>
<path d="M100.564 32.4495H99.1679V37.4749H100.564V38.0976H97.0326V37.4749H98.4381V32.4495H97.0326V31.8269H100.564V32.4495Z" fill="white"/>
<path d="M70.3218 25.8185C70.3218 26.7555 70.5857 27.5278 71.1135 28.1356C71.6412 28.7434 72.3557 29.0473 73.2571 29.0473C74.0517 29.0473 74.6995 28.8235 75.2006 28.3757C75.7016 27.9281 75.9996 27.3128 76.0945 26.5301H75.3652C75.294 27.1349 75.0775 27.6019 74.7158 27.931C74.3541 28.2601 73.8678 28.4247 73.2571 28.4247C72.5456 28.4247 71.9999 28.1876 71.6205 27.7131C71.241 27.2387 71.0513 26.6073 71.0513 25.8185C71.0513 25.0358 71.241 24.4074 71.6205 23.9328C71.9999 23.4585 72.5456 23.2213 73.2571 23.2213C73.8678 23.2213 74.3541 23.3845 74.7158 23.7105C75.0775 24.0367 75.294 24.5021 75.3652 25.107H76.0945C75.9996 24.3302 75.7016 23.718 75.2006 23.2702C74.6995 22.8226 74.0517 22.5986 73.2571 22.5986C72.3557 22.5986 71.6412 22.9011 71.1135 23.5059C70.5857 24.1107 70.3218 24.8817 70.3218 25.8185Z" fill="white"/>
<path fill-rule="evenodd" clip-rule="evenodd" d="M77.0196 25.8185C77.0196 24.8817 77.2835 24.1107 77.8112 23.5059C78.339 22.9011 79.0535 22.5986 79.9549 22.5986C80.8502 22.5986 81.5604 22.9011 82.0852 23.5059C82.6099 24.1107 82.8723 24.8817 82.8723 25.8185C82.8723 26.7614 82.6099 27.5352 82.0852 28.14C81.5604 28.7448 80.8502 29.0473 79.9549 29.0473C79.0535 29.0473 78.339 28.7448 77.8112 28.14C77.2835 27.5352 77.0196 26.7614 77.0196 25.8185ZM77.749 25.8185C77.749 26.6012 77.9371 27.2314 78.3139 27.7086C78.6903 28.186 79.2373 28.4247 79.9549 28.4247C80.6664 28.4247 81.209 28.186 81.5826 27.7086C81.9562 27.2314 82.1429 26.6012 82.1429 25.8185C82.1429 25.0418 81.9562 24.4147 81.5826 23.9373C81.209 23.4601 80.6664 23.2213 79.9549 23.2213C79.2373 23.2213 78.6903 23.4601 78.3139 23.9373C77.9371 24.4147 77.749 25.0418 77.749 25.8185Z" fill="white"/>
<path d="M95.2537 23.3102V22.6876H90.1751V23.3102H92.3628V28.9584H93.0832V23.3102H95.2537Z" fill="white"/>
<path fill-rule="evenodd" clip-rule="evenodd" d="M106.47 28.9584L105.678 26.5034H103.161L102.378 28.9584H101.649L103.677 22.6876H105.171L107.19 28.9584H106.47ZM103.365 25.8808H105.482L104.522 22.8922H104.317L103.365 25.8808Z" fill="white"/>
<path d="M107.52 25.8185C107.52 26.7555 107.783 27.5278 108.311 28.1356C108.839 28.7434 109.553 29.0473 110.454 29.0473C111.249 29.0473 111.897 28.8235 112.398 28.3757C112.899 27.9281 113.197 27.3128 113.292 26.5301H112.563C112.492 27.1349 112.275 27.6019 111.913 27.931C111.552 28.2601 111.065 28.4247 110.454 28.4247C109.743 28.4247 109.197 28.1876 108.818 27.7131C108.439 27.2387 108.249 26.6073 108.249 25.8185C108.249 25.0358 108.439 24.4074 108.818 23.9328C109.197 23.4585 109.743 23.2213 110.454 23.2213C111.065 23.2213 111.552 23.3845 111.913 23.7105C112.275 24.0367 112.492 24.5021 112.563 25.107H113.292C113.197 24.3302 112.899 23.718 112.398 23.2702C111.897 22.8226 111.249 22.5986 110.454 22.5986C109.553 22.5986 108.839 22.9011 108.311 23.5059C107.783 24.1107 107.52 24.8817 107.52 25.8185Z" fill="white"/>
<path d="M118.469 22.6876V23.3102H116.298V28.9584H115.578V23.3102H113.39V22.6876H118.469Z" fill="white"/>
<path d="M121.555 23.3102H122.952V22.6876H119.421V23.3102H120.825V28.3358H119.421V28.9584H122.952V28.3358H121.555V23.3102Z" fill="white"/>
</svg>
