<svg width="104" height="52" viewBox="0 0 104 52" fill="none" xmlns="http://www.w3.org/2000/svg">
<g clip-path="url(#clip0_16884_93018)">
<path opacity="0.05" d="M51.9455 51.1769C80.3267 51.1769 103.334 39.8854 103.334 25.9566C103.334 12.0278 80.3267 0.736328 51.9455 0.736328C23.5642 0.736328 0.556641 12.0278 0.556641 25.9566C0.556641 39.8854 23.5642 51.1769 51.9455 51.1769Z" fill="white"/>
<path d="M72.5018 19.8311C70.962 20.1651 69.3301 20.3854 67.6589 20.4848C69.4213 19.9671 70.74 19.1525 71.3692 18.1928C69.715 18.6777 67.9029 19.019 66.0124 19.2016C64.8576 18.5932 63.3559 18.1698 61.7032 17.9865C60.0506 17.8032 58.3238 17.8687 56.7481 18.1743C55.1724 18.4799 53.821 19.0115 52.8702 19.6997C51.9194 20.388 51.4133 21.2009 51.418 22.0324C51.4147 22.3506 51.4879 22.6678 51.6359 22.9776C48.2795 22.8956 44.9962 22.4671 42.0001 21.7201C39.0039 20.9732 36.3624 19.9246 34.2479 18.6428C33.1688 19.5556 32.8393 20.636 33.3266 21.6639C33.814 22.6918 35.0814 23.5898 36.8708 24.1751C35.526 24.1588 34.2098 23.9811 33.0372 23.6576V23.709C33.036 24.6657 33.7096 25.5932 34.9434 26.3339C36.1773 27.0746 37.8954 27.5829 39.8062 27.7725C39.0818 27.8689 38.3346 27.9178 37.5841 27.9178C37.0519 27.9183 36.521 27.8926 35.9993 27.8411C36.5382 28.6643 37.5881 29.3842 39.0019 29.9001C40.4158 30.416 42.1229 30.702 43.8844 30.7182C40.8957 31.8712 37.2026 32.4963 33.4011 32.4927C32.7285 32.4923 32.0565 32.4725 31.3887 32.4332C35.23 33.6599 39.7166 34.3106 44.2996 34.3056C47.461 34.3164 50.5952 34.0188 53.5202 33.4299C56.4451 32.8411 59.1023 31.9728 61.3374 30.8755C63.5725 29.7781 65.3409 28.4737 66.5398 27.0381C67.7386 25.6024 68.344 24.0641 68.3208 22.5126C68.3208 22.333 68.3208 22.1534 68.2941 21.9779C69.9453 21.3906 71.3701 20.6637 72.5018 19.8311V19.8311Z" fill="white"/>
</g>
<defs>
<clipPath id="clip0_16884_93018">
<rect width="102.778" height="50.4405" fill="white" transform="translate(0.556641 0.736328)"/>
</clipPath>
</defs>
</svg>
