<svg width="104" height="52" viewBox="0 0 104 52" fill="none" xmlns="http://www.w3.org/2000/svg">
<g clip-path="url(#clip0_16884_93042)">
<path opacity="0.05" d="M51.7228 51.1769C80.1041 51.1769 103.112 39.8854 103.112 25.9566C103.112 12.0278 80.1041 0.736328 51.7228 0.736328C23.3415 0.736328 0.333984 12.0278 0.333984 25.9566C0.333984 39.8854 23.3415 51.1769 51.7228 51.1769Z" fill="white"/>
<path d="M54.2896 36.0053V28.6781H59.3542L60.111 25.792H54.2896V23.951C54.2896 23.1066 54.7849 22.5447 57.2023 22.5447H60.3157V19.966C58.8497 19.8898 57.3777 19.8514 55.9035 19.851H55.779C54.7817 19.8295 53.7857 19.9054 52.8483 20.0739C51.9109 20.2424 51.0522 20.5002 50.319 20.8327C49.6007 21.2121 49.0435 21.6585 48.683 22.1452C48.3225 22.632 48.165 23.1491 48.2193 23.6663V25.793H43.1366V28.6791H48.2193V35.9427C43.1071 35.5087 38.5187 34.142 35.3741 32.1168C32.2295 30.0917 30.7617 27.5578 31.265 25.0236C31.7682 22.4894 34.2058 20.1424 38.088 18.4533C41.9702 16.7642 47.0092 15.8581 52.1959 15.9167C57.3826 15.9753 62.3331 16.9943 66.0528 18.7693C69.7725 20.5442 71.9864 22.9438 72.2516 25.4866C72.5167 28.0295 70.8132 30.5276 67.482 32.4796C64.1509 34.4316 59.439 35.6931 54.2916 36.0112L54.2896 36.0053Z" fill="white"/>
</g>
<defs>
<clipPath id="clip0_16884_93042">
<rect width="102.778" height="50.4405" fill="white" transform="translate(0.333984 0.736328)"/>
</clipPath>
</defs>
</svg>
