<svg width="24" height="24" viewBox="0 0 24 24" fill="none" xmlns="http://www.w3.org/2000/svg">
<g opacity="0.75">
<path d="M11.9982 1C5.92198 1 0.996094 5.92589 0.996094 12.0021C0.996094 17.4518 4.96258 21.9651 10.1633 22.839V14.2975H7.50926V11.2237H10.1633V8.95726C10.1633 6.3275 11.7695 4.89443 14.1157 4.89443C15.2395 4.89443 16.2052 4.97817 16.4855 5.01505V7.76384L14.8582 7.76463C13.5825 7.76463 13.3365 8.37072 13.3365 9.26043V11.2222H16.3805L15.9835 14.2959H13.3365V22.9125C18.7801 22.25 23.0002 17.6218 23.0002 11.999C23.0002 5.92589 18.0744 1 11.9982 1Z" fill="white"/>
</g>
</svg>
