<svg width="103" height="52" viewBox="0 0 103 52" fill="none" xmlns="http://www.w3.org/2000/svg">
<g clip-path="url(#clip0_16884_93045)">
<path opacity="0.05" d="M51.5002 51.1769C79.8814 51.1769 102.889 39.8854 102.889 25.9566C102.889 12.0278 79.8814 0.736328 51.5002 0.736328C23.1189 0.736328 0.111328 12.0278 0.111328 25.9566C0.111328 39.8854 23.1189 51.1769 51.5002 51.1769Z" fill="white"/>
<path d="M72.0471 23.8917C72.1393 22.5799 71.5546 21.2779 70.3472 20.1066C69.5293 19.6267 68.3947 19.3026 67.1405 19.1906C61.9472 18.9593 56.7323 18.8643 51.5183 18.9061C46.3204 18.8623 41.1214 18.9542 35.9434 19.1816C34.92 19.2729 33.973 19.5085 33.2177 19.8595C31.5363 20.6201 31.3492 21.9215 31.1622 23.0211C30.8912 24.9985 30.8912 26.9826 31.1622 28.96C31.2165 29.579 31.4046 30.1934 31.7234 30.793C31.9484 31.256 32.4039 31.6844 33.0492 32.0399C33.8047 32.4094 34.7683 32.6596 35.816 32.7581C39.8419 33.0021 43.8984 33.1032 47.954 33.0608C54.4907 33.1062 60.2236 33.0608 67.0028 32.8045C68.0813 32.7143 69.078 32.4647 69.86 32.0893C70.3829 31.8324 70.7733 31.5181 70.9988 31.1723C71.6664 30.1665 71.9941 29.1138 71.969 28.0561C72.0471 27.5395 72.0471 24.4415 72.0471 23.8917ZM47.2839 28.6028V22.9293L58.3387 25.7792C55.2389 26.6235 51.1483 27.5769 47.2839 28.6028Z" fill="white"/>
</g>
<defs>
<clipPath id="clip0_16884_93045">
<rect width="102.778" height="50.4405" fill="white" transform="translate(0.111328 0.736328)"/>
</clipPath>
</defs>
</svg>
