<svg width="170" height="62" viewBox="0 0 170 62" fill="none" xmlns="http://www.w3.org/2000/svg">
<path d="M15.9512 62L0.500931 46.5498V31.1066H15.9512V62Z" fill="white"/>
<path d="M62.3011 31.1049V46.5481H31.3934L15.9502 31.1049L0.5 15.6546V0.204365H15.9502L62.3011 0.20437V15.6546H31.4005L15.9502 0.204365L15.9502 31.1049H62.3011Z" fill="white"/>
<path fill-rule="evenodd" clip-rule="evenodd" d="M166.2 1.3926V4.24801H166.949V3.23808H167.106L167.271 3.24853C167.384 3.25543 167.47 3.27059 167.526 3.29391C167.628 3.33353 167.697 3.40347 167.735 3.50363C167.758 3.56416 167.774 3.68073 167.782 3.85313C167.791 4.02564 167.806 4.15715 167.829 4.24801H168.543L168.516 4.16772C168.507 4.1397 168.499 4.11179 168.496 4.08387C168.492 4.05585 168.49 4.02783 168.49 3.99992V3.74482C168.49 3.45355 168.406 3.24007 168.239 3.10426C168.147 3.0318 168.012 2.97671 167.833 2.93918C168.029 2.91816 168.194 2.8547 168.328 2.74786C168.462 2.64122 168.529 2.46788 168.529 2.22794C168.529 1.91336 168.401 1.68618 168.147 1.5464C167.999 1.46485 167.811 1.41592 167.585 1.39961C167.545 1.39721 167.348 1.39554 166.996 1.39438C166.643 1.39323 166.378 1.3926 166.2 1.3926ZM167.131 1.8959C167.317 1.8959 167.461 1.91566 167.564 1.95528C167.717 2.01592 167.795 2.12423 167.795 2.28042C167.795 2.43641 167.746 2.54942 167.647 2.61937C167.55 2.6892 167.414 2.72422 167.239 2.72422H166.949V1.8959H167.131Z" fill="white"/>
<path fill-rule="evenodd" clip-rule="evenodd" d="M167.329 5.39093C168.031 5.39093 168.632 5.14869 169.133 4.664C169.648 4.16301 169.906 3.5467 169.906 2.81508C169.906 2.10446 169.654 1.49747 169.151 0.994172C168.647 0.490878 168.04 0.239235 167.329 0.239235C166.651 0.239235 166.061 0.472165 165.558 0.938239C165.022 1.43683 164.753 2.06254 164.753 2.81508C164.753 3.5398 165.002 4.15026 165.498 4.64654C165.994 5.14283 166.605 5.39093 167.329 5.39093ZM165.202 2.81508C165.202 2.23954 165.407 1.74211 165.817 1.32277C166.233 0.894015 166.738 0.679589 167.329 0.679589C167.914 0.679589 168.416 0.894015 168.833 1.32277C169.245 1.74441 169.452 2.24195 169.452 2.81508C169.452 3.40462 169.244 3.91022 168.829 4.33196C168.414 4.75141 167.914 4.96113 167.329 4.96113C166.743 4.96113 166.241 4.75256 165.826 4.33551C165.41 3.91837 165.202 3.41163 165.202 2.81508Z" fill="white"/>
<path d="M80.4422 0.239434V2.10855H72.2727V7.96777H79.2128V9.81538H72.2727V15.696H70.1212V0.239434H80.4422Z" fill="white"/>
<path fill-rule="evenodd" clip-rule="evenodd" d="M94.7872 2.49807V8.78443L94.7017 8.78799L92.5783 8.80933L94.7872 11.018V15.6996H92.3759V9.65284H85.1241V15.6996H82.9688V0.239439H92.5284L92.5538 0.264505L94.7872 2.49807ZM92.4038 2.10855H85.1241V7.78017H92.4038V2.10855Z" fill="white"/>
<path fill-rule="evenodd" clip-rule="evenodd" d="M110.819 15.5781L105.616 0.300247L105.595 0.239434H101.935L101.914 0.300247L96.6921 15.5781L96.6489 15.696H98.8756L98.8968 15.6353L100.869 9.84578H106.638L108.589 15.6353L108.611 15.696H110.859L110.819 15.5781ZM105.991 7.97675H101.495L103.754 1.34381L105.991 7.97675Z" fill="white"/>
<path d="M126.272 9.70273L126.283 9.60279H124.132L124.121 9.68138C123.774 12.4939 122.027 14.0449 119.203 14.0449C115.976 14.0449 114.05 11.7684 114.05 7.9588C114.05 4.15984 115.976 1.89054 119.203 1.89054C122.03 1.89054 123.774 3.43441 124.121 6.23621L124.132 6.31134H126.283L126.272 6.21123C125.804 2.32301 123.163 0 119.203 0C114.822 0 111.877 3.19853 111.877 7.9588C111.877 12.7298 114.822 15.9355 119.203 15.9355C123.163 15.9355 125.808 13.6054 126.272 9.70273Z" fill="white"/>
<path d="M139.946 0.239434V2.10857H134.7V15.696H132.552V2.10857H127.283V0.239434H139.946Z" fill="white"/>
<path fill-rule="evenodd" clip-rule="evenodd" d="M153.115 15.5783L153.154 15.6962H150.905L150.888 15.6355L148.933 9.84597H143.168L141.196 15.6355L141.174 15.6962H138.948L138.987 15.5783L144.212 0.300524L144.234 0.23972H147.893L153.115 15.5783ZM146.052 1.344L143.791 7.97696H148.289L146.052 1.344Z" fill="white"/>
<path d="M164.753 13.8268L164.75 15.6959H154.95V0.23924H157.102V13.8268H164.753Z" fill="white"/>
<path fill-rule="evenodd" clip-rule="evenodd" d="M99.6913 23.2526V25.6832L98.8647 25.6917L98.73 25.6928L98.8257 25.7887L99.6913 26.6532V28.4417H98.8418V26.0281H95.8333V28.4417H95.0863V22.3841H98.8223L99.6913 23.2526ZM95.8333 25.3945H98.8528V23.0166H95.8333V25.3945Z" fill="white"/>
<path d="M106.449 34.4646C106.449 32.5257 107.523 31.2341 109.383 31.2341C110.876 31.2341 111.879 32.107 112.08 33.5303H111.278C111.137 32.5086 110.465 31.9147 109.41 31.9147C108.004 31.9147 107.253 32.9454 107.253 34.4817C107.253 35.8085 107.829 36.8998 109.374 36.8998C110.727 36.8998 111.443 36.1578 111.399 34.7868H109.016V34.1758H112.211V37.4847H111.417V36.2535C111.242 36.786 110.666 37.5804 109.217 37.5804C107.349 37.5804 106.449 36.2364 106.449 34.4646Z" fill="white"/>
<path d="M131.865 22.2399C130.005 22.2399 128.931 23.5316 128.931 25.4703C128.931 27.2422 129.83 28.5862 131.698 28.5862C133.148 28.5862 133.724 27.7919 133.898 27.2594V28.4905H134.693V25.1816H131.498V25.7927H133.881C133.924 27.1637 133.209 27.9056 131.856 27.9056C130.31 27.9056 129.734 26.8144 129.734 25.4875C129.734 23.9513 130.486 22.9206 131.891 22.9206C132.947 22.9206 133.619 23.5144 133.759 24.5362H134.562C134.361 23.1128 133.358 22.2399 131.865 22.2399Z" fill="white"/>
<path d="M90.2822 43.0666C90.2822 41.1279 91.3561 39.8362 93.2152 39.8362C94.7085 39.8362 95.7121 40.709 95.9129 42.1324H95.1099C94.9702 41.1107 94.2977 40.5168 93.2415 40.5168C91.8364 40.5168 91.0851 41.5475 91.0851 43.0838C91.0851 44.4106 91.6611 45.5018 93.2068 45.5018C94.5594 45.5018 95.2751 44.7599 95.2319 43.3889H92.8485V42.7778H96.0433V46.0868H95.2488V44.8555C95.0752 45.3882 94.4984 46.1824 93.0492 46.1824C91.1808 46.1824 90.2822 44.8384 90.2822 43.0666Z" fill="white"/>
<path fill-rule="evenodd" clip-rule="evenodd" d="M72.8924 39.9851C72.6239 39.9443 72.3235 39.9238 71.9908 39.9238H70.0301V46.0949H71.9908C72.3235 46.0949 72.6239 46.0745 72.8924 46.0337C73.1607 45.9929 73.4365 45.9054 73.7197 45.771C74.0026 45.6369 74.2389 45.4603 74.4287 45.2414C74.6182 45.0226 74.7744 44.7237 74.897 44.3442C75.0195 43.9649 75.0808 43.5185 75.0808 43.005C75.0808 42.4915 75.0195 42.0451 74.897 41.6657C74.7744 41.2864 74.6182 40.9873 74.4287 40.7685C74.2389 40.5497 74.0026 40.3745 73.7197 40.2432C73.4365 40.112 73.1607 40.0259 72.8924 39.9851ZM72.5511 45.4559C72.3876 45.4734 72.2009 45.4821 71.9908 45.4821H70.7479V40.5365H71.9908C72.2475 40.5365 72.4708 40.5482 72.6604 40.5714C72.85 40.5949 73.0601 40.6547 73.2908 40.751C73.5211 40.8472 73.7078 40.98 73.8509 41.1493C73.9938 41.3186 74.115 41.5606 74.2142 41.8758C74.3134 42.1909 74.363 42.5673 74.363 43.005C74.363 43.3726 74.3308 43.6979 74.2667 43.981C74.2024 44.2641 74.1092 44.493 73.9865 44.6681C73.8641 44.8432 73.7328 44.9876 73.5927 45.1014C73.4526 45.2153 73.2848 45.2983 73.0893 45.3509C72.8939 45.4034 72.7143 45.4383 72.5511 45.4559Z" fill="white"/>
<path d="M76.0963 46.0949V39.9238H79.9215V40.5365H76.814V42.6986H79.4838V43.3113H76.814V45.4821H79.9215V46.0949H76.0963Z" fill="white"/>
<path d="M83.3791 46.1824C84.9606 46.1824 85.7517 45.634 85.7517 44.5368C85.7517 44.3676 85.7254 44.2116 85.6729 44.0684C85.6204 43.9256 85.5585 43.8015 85.4891 43.6965C85.4188 43.5914 85.3146 43.4895 85.1783 43.3901C85.041 43.2909 84.9182 43.2093 84.8107 43.145C84.7023 43.0808 84.5506 43.0123 84.355 42.9393C84.1596 42.8664 84.005 42.811 83.8912 42.773C83.7774 42.735 83.6124 42.6841 83.3966 42.6198C83.2857 42.5848 83.201 42.5585 83.1428 42.541C82.5767 42.3659 82.1755 42.1982 81.9392 42.0376C81.7029 41.8772 81.5847 41.6452 81.5847 41.3418C81.5847 40.7466 82.0748 40.4489 83.0552 40.4489C83.563 40.4489 83.9772 40.5745 84.2982 40.8254C84.6193 41.0762 84.7793 41.4527 84.7793 41.9546H85.4976C85.4976 41.6862 85.4535 41.4324 85.3663 41.193C85.2782 40.9538 85.1444 40.7291 84.9631 40.5189C84.7827 40.3089 84.5286 40.1426 84.2017 40.0201C83.8751 39.8974 83.4929 39.8362 83.0552 39.8362C81.5963 39.8362 80.8669 40.3439 80.8669 41.3593C80.8669 41.6219 80.9151 41.8494 81.0113 42.042C81.1076 42.2347 81.2622 42.3996 81.4753 42.5367C81.6882 42.6739 81.8999 42.7832 82.1099 42.8649C82.32 42.9466 82.6058 43.043 82.9677 43.1538C83.0378 43.1772 83.1457 43.2093 83.2916 43.25C83.4374 43.2909 83.5482 43.3216 83.6242 43.3419C83.7 43.3625 83.8037 43.3944 83.935 43.4382C84.0663 43.482 84.167 43.5214 84.2373 43.5564C84.3067 43.5914 84.3914 43.6352 84.4905 43.6877C84.5896 43.7402 84.6658 43.7958 84.7183 43.854C84.7709 43.9124 84.8251 43.9766 84.8801 44.0466C84.936 44.1166 84.975 44.1969 84.9987 44.2873C85.0216 44.3779 85.0334 44.4726 85.0334 44.5718C85.0334 44.9279 84.8945 45.1832 84.6176 45.3378C84.3406 45.4925 83.9276 45.5697 83.3791 45.5697C82.673 45.5697 82.1506 45.4443 81.8123 45.1933C81.4737 44.9424 81.3045 44.4726 81.3045 43.7839H80.5868C80.5868 44.5602 80.7968 45.1539 81.217 45.5653C81.6372 45.9768 82.3579 46.1824 83.3791 46.1824Z" fill="white"/>
<path d="M89.8214 40.5365H88.4476V45.4821H89.8214V46.0949H86.3462V45.4821H87.7293V40.5365H86.3462V39.9238H89.8214V40.5365Z" fill="white"/>
<path d="M97.2705 39.9238V46.0949H97.9888V40.1251L101.061 46.0949H102.418V39.9238H101.709V45.8936L98.6274 39.9238H97.2705Z" fill="white"/>
<path d="M100.442 37.4928V31.3217H101.799L104.88 37.2915V31.3217H105.589V37.4928H104.232L101.16 31.523V37.4928H100.442Z" fill="white"/>
<path d="M83.0767 22.3275V28.4987H83.7944V22.5289L86.8671 28.4987H88.2239V22.3275H87.515V28.2974L84.4337 22.3275H83.0767Z" fill="white"/>
<path d="M122.725 28.4987V22.3275H124.082L127.163 28.2974V22.3275H127.872V28.4987H126.516L123.443 22.5289V28.4987H122.725Z" fill="white"/>
<path fill-rule="evenodd" clip-rule="evenodd" d="M70.0301 31.3217V37.4928H72.0609C72.8545 37.4928 73.4585 37.3689 73.8728 37.1209C74.2871 36.8729 74.4943 36.4512 74.4943 35.856C74.4943 34.8755 73.9311 34.2604 72.8049 34.2369C73.1607 34.2137 73.4555 33.9974 73.689 33.7814C73.9223 33.5656 74.0391 33.2504 74.0391 32.836C74.0391 32.2583 73.8465 31.8615 73.4614 31.6456C73.0762 31.4298 72.478 31.3217 71.6669 31.3217H70.0301ZM72.0871 36.8801H70.7479V34.5867H72.0871C72.6531 34.5867 73.0762 34.6713 73.3564 34.8405C73.6365 35.0098 73.7765 35.3076 73.7765 35.7334C73.7765 36.1886 73.6393 36.4936 73.3651 36.6482C73.0908 36.8028 72.6648 36.8801 72.0871 36.8801ZM71.6932 33.974H70.7479V31.9345H71.6932C71.9265 31.9345 72.1134 31.9389 72.2534 31.9476C72.3935 31.9563 72.5408 31.9797 72.6955 32.0176C72.85 32.0557 72.9669 32.1095 73.0456 32.1795C73.1244 32.2496 73.1901 32.3488 73.2426 32.4771C73.2951 32.6056 73.3213 32.7632 73.3213 32.9498C73.3213 33.3583 73.1901 33.6312 72.9274 33.7683C72.6648 33.9055 72.2534 33.974 71.6932 33.974Z" fill="white"/>
<path d="M75.466 35.1995V31.3217H76.1838V35.0856C76.1838 35.7334 76.3151 36.2092 76.5777 36.5125C76.8403 36.816 77.2837 36.9677 77.9082 36.9677C78.5326 36.9677 78.9775 36.816 79.2431 36.5125C79.5086 36.2092 79.6413 35.7334 79.6413 35.0856V31.3217H80.3591V35.1995C80.3591 36.7869 79.5421 37.5804 77.9082 37.5804C76.2801 37.5804 75.466 36.7869 75.466 35.1995Z" fill="white"/>
<path d="M83.3003 31.9345H84.6743V31.3217H81.1995V31.9345H82.5825V36.8801H81.1995V37.4928H84.6743V36.8801H83.3003V31.9345Z" fill="white"/>
<path d="M85.7602 37.4928V31.3217H86.4775V36.8801H89.5851V37.4928H85.7602Z" fill="white"/>
<path fill-rule="evenodd" clip-rule="evenodd" d="M93.3753 31.3829C93.1069 31.3423 92.807 31.3217 92.4742 31.3217H90.5134V37.4928H92.4742C92.807 37.4928 93.1069 37.4725 93.3753 37.4316C93.6438 37.3909 93.9199 37.3034 94.2028 37.169C94.4857 37.0349 94.722 36.8583 94.9118 36.6394C95.1015 36.4206 95.2573 36.1215 95.3801 35.7422C95.5029 35.3629 95.5639 34.9165 95.5639 34.4029C95.5639 33.8895 95.5029 33.443 95.3801 33.0637C95.2573 32.6843 95.1015 32.3852 94.9118 32.1664C94.722 31.9476 94.4857 31.7725 94.2028 31.6412C93.9199 31.5099 93.6438 31.4239 93.3753 31.3829ZM93.034 36.8539C92.8705 36.8714 92.6842 36.8801 92.4742 36.8801H91.2308V31.9345H92.4742C92.7308 31.9345 92.9536 31.9462 93.1433 31.9694C93.333 31.9928 93.543 32.0525 93.7743 32.1489C94.0046 32.2452 94.191 32.3779 94.3341 32.5472C94.4773 32.7165 94.5984 32.9586 94.6975 33.2737C94.7966 33.5888 94.8465 33.9652 94.8465 34.4029C94.8465 34.7705 94.8144 35.0959 94.75 35.379C94.6856 35.662 94.5924 35.891 94.4696 36.066C94.3477 36.2412 94.2164 36.3856 94.0758 36.4993C93.936 36.6132 93.7683 36.6963 93.5727 36.7489C93.377 36.8014 93.1975 36.8364 93.034 36.8539Z" fill="white"/>
<path d="M99.4676 31.9345H98.0938V36.8801H99.4676V37.4928H95.9925V36.8801H97.3756V31.9345H95.9925V31.3217H99.4676V31.9345Z" fill="white"/>
<path d="M69.7056 25.4087C69.7056 26.3308 69.9653 27.0908 70.4848 27.689C71.004 28.2872 71.7072 28.5862 72.5943 28.5862C73.3763 28.5862 74.0138 28.366 74.507 27.9253C75 27.4848 75.2933 26.8793 75.3866 26.109H74.6689C74.5989 26.7042 74.3858 27.1638 74.0299 27.4877C73.6739 27.8115 73.1953 27.9735 72.5943 27.9735C71.894 27.9735 71.3571 27.7401 70.9837 27.2732C70.6102 26.8063 70.4235 26.1849 70.4235 25.4087C70.4235 24.6384 70.6102 24.02 70.9837 23.5529C71.3571 23.0862 71.894 22.8527 72.5943 22.8527C73.1953 22.8527 73.6739 23.0133 74.0299 23.3342C74.3858 23.6552 74.5989 24.1132 74.6689 24.7085H75.3866C75.2933 23.944 75 23.3415 74.507 22.9008C74.0138 22.4603 73.3763 22.2399 72.5943 22.2399C71.7072 22.2399 71.004 22.5376 70.4848 23.1328C69.9653 23.728 69.7056 24.4867 69.7056 25.4087Z" fill="white"/>
<path fill-rule="evenodd" clip-rule="evenodd" d="M76.2971 25.4087C76.2971 24.4867 76.5568 23.728 77.0761 23.1328C77.5955 22.5376 78.2987 22.2399 79.1858 22.2399C80.0668 22.2399 80.7658 22.5376 81.2822 23.1328C81.7986 23.728 82.0569 24.4867 82.0569 25.4087C82.0569 26.3366 81.7986 27.0981 81.2822 27.6934C80.7658 28.2886 80.0668 28.5862 79.1858 28.5862C78.2987 28.5862 77.5955 28.2886 77.0761 27.6934C76.5568 27.0981 76.2971 26.3366 76.2971 25.4087ZM77.0149 25.4087C77.0149 26.179 77.2001 26.7991 77.5708 27.2688C77.9412 27.7386 78.4796 27.9735 79.1858 27.9735C79.886 27.9735 80.42 27.7386 80.7876 27.2688C81.1553 26.7991 81.3391 26.179 81.3391 25.4087C81.3391 24.6443 81.1553 24.0272 80.7876 23.5573C80.42 23.0877 79.886 22.8527 79.1858 22.8527C78.4796 22.8527 77.9412 23.0877 77.5708 23.5573C77.2001 24.0272 77.0149 24.6443 77.0149 25.4087Z" fill="white"/>
<path d="M94.2417 22.9402V22.3275H89.2437V22.9402H91.3967V28.4987H92.1057V22.9402H94.2417Z" fill="white"/>
<path fill-rule="evenodd" clip-rule="evenodd" d="M105.28 28.4987L104.5 26.0827H102.024L101.253 28.4987H100.536L102.531 22.3275H104.002L105.989 28.4987H105.28ZM102.225 25.47H104.308L103.363 22.5289H103.161L102.225 25.47Z" fill="white"/>
<path d="M106.313 25.4087C106.313 26.3308 106.572 27.0908 107.091 27.689C107.611 28.2872 108.314 28.5862 109.201 28.5862C109.983 28.5862 110.621 28.366 111.114 27.9253C111.607 27.4848 111.9 26.8793 111.994 26.109H111.276C111.206 26.7042 110.993 27.1638 110.637 27.4877C110.281 27.8115 109.803 27.9735 109.201 27.9735C108.501 27.9735 107.964 27.7401 107.591 27.2732C107.218 26.8063 107.03 26.1849 107.03 25.4087C107.03 24.6384 107.218 24.02 107.591 23.5529C107.964 23.0862 108.501 22.8527 109.201 22.8527C109.803 22.8527 110.281 23.0133 110.637 23.3342C110.993 23.6552 111.206 24.1132 111.276 24.7085H111.994C111.9 23.944 111.607 23.3415 111.114 22.9008C110.621 22.4603 109.983 22.2399 109.201 22.2399C108.314 22.2399 107.611 22.5376 107.091 23.1328C106.572 23.728 106.313 24.4867 106.313 25.4087Z" fill="white"/>
<path d="M117.088 22.3275V22.9402H114.952V28.4987H114.243V22.9402H112.09V22.3275H117.088Z" fill="white"/>
<path d="M120.125 22.9402H121.5V22.3275H118.025V22.9402H119.407V27.886H118.025V28.4987H121.5V27.886H120.125V22.9402Z" fill="white"/>
</svg>
