<svg width="1170" height="64" viewBox="0 0 1170 64" fill="none" xmlns="http://www.w3.org/2000/svg">
<g clip-path="url(#clip0_1246_7199)">
<path opacity="0.4" d="M1058.79 56.0994C1055.07 55.9529 1052.01 54.9436 1049.63 53.069C1049.18 52.711 1048.1 51.6373 1047.73 51.1844C1046.77 49.9813 1046.11 48.8104 1045.67 47.5113C1044.32 43.5121 1045.02 38.2645 1047.66 32.5052C1049.92 27.5745 1053.4 22.6843 1059.49 15.9113C1060.38 14.9147 1063.05 12 1063.07 12C1063.07 12 1062.92 12.2494 1062.75 12.5532C1061.16 15.1768 1059.81 18.267 1059.07 20.9424C1057.89 25.2352 1058.03 28.9191 1059.5 31.7757C1060.5 33.7437 1062.23 35.4482 1064.16 36.3906C1067.57 38.0396 1072.54 38.1761 1078.61 36.7898C1079.04 36.6937 1099.76 31.244 1124.69 24.6788C1149.6 18.1129 1169.99 12.7452 1170 12.7496C1170.01 12.7553 1112.11 37.2918 1082.05 50.0211C1077.29 52.0364 1076.01 52.5455 1073.78 53.3236C1068.05 55.3131 1062.93 56.2623 1058.79 56.0994Z" fill="#597393"/>
<g opacity="0.4">
<path fill-rule="evenodd" clip-rule="evenodd" d="M742.861 42.8189C741.613 40.743 741 38.0192 741 34.9155C741 29.2715 742.549 23.3889 745.495 18.8462C748.109 14.8174 751.881 12 756.207 12C758.712 12 761.203 12.7415 763.804 14.8651C765.175 15.984 766.589 17.4515 768.11 19.3769C769.346 17.7075 770.679 16.1287 772.113 14.878C774.234 13.0278 776.523 12 778.827 12C782.694 12 786.378 14.2411 789.197 18.4442C792.282 23.0475 793.78 28.8457 793.78 34.8292C793.78 38.3863 793.079 41 791.886 43.0649C790.805 44.937 788.763 46.8076 785.398 47.0341C785.174 47.0492 784.944 47.057 784.707 47.057C782.358 47.057 780.277 46.5467 777.975 44.3754C776.206 42.7088 774.137 39.7482 772.546 37.0868L767.812 29.1797C767.677 28.9542 767.543 28.732 767.409 28.5131C767.274 28.7517 767.138 28.9929 767.001 29.2366L765.338 32.1825C761.997 38.1055 761.151 39.4546 759.481 41.6809C756.554 45.5794 754.054 47.057 750.763 47.057C746.859 47.057 744.39 45.3665 742.861 42.8189ZM747.721 39.6179C747.143 38.6818 746.701 37.1346 746.701 35.1192C746.701 30.2333 748.087 25.1454 750.35 21.7297C751.75 19.6146 753.39 18.1402 755.286 17.8047C755.54 17.7598 755.799 17.7353 756.062 17.7324C756.08 17.7322 756.097 17.7321 756.115 17.7321C758.897 17.7321 760.641 19.4721 761.998 20.9129C762.675 21.6329 763.618 22.8204 764.713 24.3808L762.469 27.8289C761.978 28.5833 761.416 29.4702 760.814 30.4204L760.814 30.4207C759.377 32.6906 757.711 35.3214 756.231 37.3695C753.609 40.9945 752.249 41.3634 750.763 41.3634C749.61 41.3634 748.479 40.844 747.721 39.6179ZM770.7 22.948C771.578 24.2513 772.496 25.7003 773.464 27.3113L774.82 29.5725C778.094 35.0275 779.957 37.8339 781.048 39.1572C782.45 40.8568 783.432 41.3634 784.707 41.3634C785.112 41.3634 785.478 41.317 785.81 41.229C788.133 40.6133 788.751 37.9646 788.751 34.9871C788.751 30.1378 787.62 24.7563 785.13 20.9111C783.362 18.1836 781.071 16.517 778.551 16.517C775.826 16.517 773.632 18.5727 771.167 22.2381C771.012 22.4688 770.856 22.7055 770.7 22.948Z" fill="#597393"/>
<path d="M811.457 13.1086H804.862V46.4403H810.242V20.8946L820.075 38.5846H825.122L834.956 20.8946V46.4403H840.336V13.1086H833.884L822.67 33.3939L811.457 13.1086Z" fill="#597393"/>
<path fill-rule="evenodd" clip-rule="evenodd" d="M857.286 21.012C850.011 21.012 845.121 26.5184 845.121 34.0841C845.121 41.2918 849.816 47.0349 857.692 47.0349C862.027 47.0349 865.452 45.607 868.145 43.131L865.287 39.6308C863.308 41.4937 861.222 42.5124 857.883 42.5124C853.698 42.5124 851.103 39.8767 850.455 35.9654H868.716V34.4879C868.716 26.4486 864.443 21.012 857.286 21.012ZM850.455 32.0357C851.011 28.4401 853.335 25.5364 857.193 25.5364C861.143 25.5364 863.279 28.3318 863.549 32.0357H850.455Z" fill="#597393"/>
<path d="M870.287 26.0136H875.239V37.7972C875.239 43.9257 878.04 46.9872 883.643 46.9872C885.134 46.9872 886.51 46.8 887.953 46.3925V42.0352C886.795 42.2279 886.011 42.3454 884.644 42.3454C881.648 42.3454 880.429 40.9908 880.429 37.1786V26.0136H887.953V21.6086H880.429V14.3237H875.239V21.6086H870.287V26.0136Z" fill="#597393"/>
<path fill-rule="evenodd" clip-rule="evenodd" d="M909.905 46.4403H915V21.6086H909.905V24.7986C908.09 22.3813 905.402 21.012 901.978 21.012C895.049 21.012 890.429 26.5716 890.429 34.0125C890.429 41.3836 894.94 47.0349 901.691 47.0349C905.889 47.0349 908.481 45.0104 909.905 42.9639V46.4403ZM903.024 25.7273C906.441 25.7273 908.767 27.6655 909.809 30.2975V37.7494C908.813 40.2842 906.313 42.3215 902.811 42.3215C898.356 42.3215 895.739 39.0177 895.739 34.0125C895.739 28.8787 898.582 25.7273 903.024 25.7273Z" fill="#597393"/>
</g>
<g opacity="0.4">
<path d="M475.209 22.2417V27.6858L488.22 27.68C487.821 30.6827 486.809 32.8812 485.27 34.4201C483.372 36.3178 480.41 38.4063 475.209 38.4063C467.19 38.4063 460.919 31.9439 460.919 23.9252C460.919 15.9065 467.19 9.44415 475.209 9.44415C479.536 9.44415 482.695 11.1451 485.027 13.332L488.868 9.49043C485.617 6.38362 481.289 4 475.215 4C464.234 4 455 12.9444 455 23.9252C455 34.9061 464.234 43.8505 475.215 43.8505C481.139 43.8505 485.611 41.9065 489.111 38.2617C492.71 34.6631 493.826 29.6124 493.826 25.5278C493.826 24.3129 493.734 23.1905 493.555 22.2417H475.209Z" fill="#597393"/>
<path d="M584.965 43.0694V5.46375H579.469V43.0694H584.965Z" fill="#597393"/>
<path fill-rule="evenodd" clip-rule="evenodd" d="M508.886 43.8563C515.979 43.8563 521.759 38.4121 521.759 31.024C521.759 23.5839 515.979 18.1918 508.886 18.1918C501.793 18.1918 496.013 23.5839 496.013 31.024C496.013 38.4121 501.793 43.8563 508.886 43.8563ZM508.886 23.2484C512.774 23.2484 516.124 26.4072 516.124 31.024C516.124 35.5888 512.774 38.7998 508.886 38.7998C504.998 38.7998 501.648 35.5946 501.648 31.024C501.648 26.4072 504.998 23.2484 508.886 23.2484Z" fill="#597393"/>
<path fill-rule="evenodd" clip-rule="evenodd" d="M536.657 43.8563C543.75 43.8563 549.529 38.4121 549.529 31.024C549.529 23.5839 543.75 18.1918 536.657 18.1918C529.564 18.1918 523.784 23.5897 523.784 31.024C523.784 38.4121 529.564 43.8563 536.657 43.8563ZM536.657 23.2484C540.544 23.2484 543.894 26.4072 543.894 31.024C543.894 35.5888 540.544 38.7998 536.657 38.7998C532.769 38.7998 529.419 35.5946 529.419 31.024C529.419 26.4072 532.769 23.2484 536.657 23.2484Z" fill="#597393"/>
<path fill-rule="evenodd" clip-rule="evenodd" d="M576.142 18.9729V42.0049C576.142 51.4816 570.554 55.352 563.947 55.352C557.727 55.352 553.984 51.1923 552.572 47.7904L557.478 45.7481C558.352 47.8367 560.493 50.3013 563.941 50.3013C568.17 50.3013 570.791 47.6921 570.791 42.7802V40.9346H570.594C569.333 42.4909 566.903 43.8505 563.837 43.8505C557.421 43.8505 551.543 38.2617 551.543 31.0703C551.543 23.8269 557.421 18.1918 563.837 18.1918C566.897 18.1918 569.327 19.5514 570.594 21.0614H570.791V18.9729H576.142ZM571.19 31.0703C571.19 26.5519 568.176 23.2484 564.34 23.2484C560.452 23.2484 557.195 26.5519 557.195 31.0703C557.195 35.5425 560.452 38.7998 564.34 38.7998C568.176 38.7998 571.19 35.5425 571.19 31.0703Z" fill="#597393"/>
<path fill-rule="evenodd" clip-rule="evenodd" d="M606.383 35.2475L610.757 38.1633C609.345 40.2519 605.943 43.8505 600.065 43.8505C592.776 43.8505 587.332 38.2154 587.332 31.0183C587.332 23.3872 592.822 18.186 599.435 18.186C606.094 18.186 609.351 23.4855 610.416 26.3494L611 27.8073L593.846 34.9119C595.159 37.4864 597.202 38.7997 600.065 38.7997C602.935 38.7997 604.925 37.3881 606.383 35.2475ZM592.92 30.6306L604.387 25.8692C603.757 24.2666 601.859 23.15 599.626 23.15C596.762 23.15 592.776 25.6783 592.92 30.6306Z" fill="#597393"/>
</g>
<path opacity="0.4" d="M304.636 27.9893C302.1 28.5744 295.404 28.8995 295.404 28.8995L294.58 31.5434C294.58 31.5434 297.896 31.2616 300.323 31.5C300.323 31.5 301.103 31.435 301.19 32.3669C301.233 33.3204 301.125 34.3173 301.125 34.3173C301.125 34.3173 301.06 34.9024 300.258 35.0541C299.326 35.2058 293.042 35.4875 293.042 35.4875L292.023 38.9116C292.023 38.9116 291.655 39.6918 292.5 39.4751C293.28 39.2583 299.868 38.0014 300.735 38.1748C301.645 38.3915 302.685 39.6484 302.382 40.7753C302.035 42.1406 295.447 46.3449 291.46 46.0631C291.46 46.0631 289.358 46.1932 287.602 43.3542C285.912 40.6453 288.187 35.5526 288.187 35.5526C288.187 35.5526 287.169 33.1687 287.927 32.3019C287.927 32.3019 288.361 31.9335 289.661 31.8251L291.286 28.4877C291.286 28.4877 289.444 28.5961 288.361 27.2525C287.364 25.9522 287.277 25.3887 288.057 25.042C288.881 24.6086 296.509 23.2433 301.754 23.4166C301.754 23.4166 303.596 23.1999 305.221 26.3856C305.221 26.3856 305.958 27.6859 304.658 27.9893H304.636ZM284.872 40.8187C284.222 42.4007 282.423 44.0694 280.256 43.0508C278.045 42.0106 274.556 34.9024 274.556 34.9024C274.556 34.9024 273.256 32.2585 272.996 32.3452C272.996 32.3452 272.714 31.8251 272.562 34.729C272.346 37.6113 272.606 43.2242 271.414 44.1127C270.33 44.9796 269.03 44.6112 268.293 43.5926C267.686 42.5741 267.426 40.1252 267.773 35.856C268.163 31.5867 269.138 27.0357 270.374 25.6271C271.674 24.1968 272.714 25.237 273.104 25.6271C273.104 25.6271 274.773 27.1441 277.59 31.6301L278.067 32.4536C278.067 32.4536 280.624 36.7228 280.884 36.7011C280.884 36.7011 281.101 36.9178 281.274 36.7445C281.534 36.6795 281.448 35.2925 281.448 35.2925C281.448 35.2925 280.971 30.6765 278.587 22.8749C278.587 22.8749 278.24 21.878 278.479 20.9244C278.695 20.0576 279.627 20.491 279.627 20.491C279.627 20.491 283.225 22.2247 284.98 28.076C286.714 33.9272 285.543 39.2367 284.893 40.8187H284.872ZM267.231 25.8005C266.884 26.4073 266.733 27.2525 265.237 27.4908C265.237 27.4908 250.718 28.5094 250.003 29.5279C250.003 29.5279 249.526 30.1347 250.306 30.2864C251.129 30.4598 254.424 30.8932 255.984 30.9799C257.674 30.9799 263.352 31.0233 265.433 33.5805C265.433 33.5805 266.624 34.7941 266.581 37.5463C266.538 40.3636 266.039 41.3605 264.934 42.379C263.785 43.3325 253.947 47.7535 247.597 40.9921C247.597 40.9921 244.693 37.7414 248.616 35.2708C248.616 35.2708 251.433 33.5371 258.649 35.5526C258.649 35.5526 260.817 36.3327 260.73 37.1346C260.6 38.0014 258.931 38.8683 256.504 38.8249C254.163 38.7599 252.43 37.633 252.776 37.828C253.102 37.9364 250.241 36.4411 249.352 37.4596C248.486 38.4132 248.702 38.9766 249.569 39.5617C251.736 40.8187 260.253 40.3636 262.789 37.5246C262.789 37.5246 263.807 36.3761 262.269 35.4442C260.752 34.5774 256.331 34.0356 254.619 33.9706C252.993 33.8839 246.904 33.9706 245.993 32.3885C245.993 32.3885 245.127 31.2616 246.08 28.1843C247.077 24.9336 254.163 23.6767 257.241 23.4166C257.241 23.4166 265.693 23.0699 267.275 24.8036C267.275 24.8036 267.491 25.1937 267.231 25.7788V25.8005ZM243.263 44.8495C242.244 45.608 240.077 45.283 239.449 44.4161C238.842 43.6576 238.625 40.667 238.734 35.9643C238.885 31.1533 238.95 25.2587 240.034 24.3052C241.117 23.3733 241.767 24.1968 242.201 24.8253C242.634 25.4754 243.198 26.1906 243.284 27.6859C243.414 29.2029 243.783 37.0045 243.783 37.0045C243.783 37.0045 244.26 44.1127 243.284 44.8495H243.263ZM245.43 19.4941C242.439 20.5127 240.402 20.1876 238.668 19.4291C237.91 20.7944 237.455 21.2062 236.891 21.2929C236.025 21.3795 235.266 19.9926 235.158 19.5592C234.984 19.2341 234.573 18.649 235.071 17.327C233.381 15.81 233.251 13.7729 233.554 12.4076C233.944 10.804 236.805 4.77935 245.473 4.0642C245.473 4.0642 249.721 3.7608 250.458 6.01461H250.588C250.588 6.01461 254.705 6.01461 254.619 9.69873C254.619 13.3828 250.068 17.9772 245.43 19.5592V19.4941ZM249.287 9.00525C246.557 9.43867 242.353 13.0794 240.337 16.0918C243.436 16.6552 248.854 16.4385 251.281 11.5408C251.281 11.5408 252.43 8.46347 249.287 9.00525ZM237.303 11.3891C236.436 12.7977 236.393 13.6429 236.805 14.2064C237.823 12.6894 239.622 10.3055 242.331 8.44179C240.25 8.65851 238.495 9.52536 237.303 11.3891ZM311.137 44.6978C309.143 49.5955 307.453 54.5583 306.478 61.9915C306.478 61.9915 306.261 63.4435 305.069 62.9667C303.877 62.5333 301.927 60.5829 301.494 57.8306C301.06 54.2332 302.664 48.1652 305.936 41.1871C304.983 39.6701 304.311 37.4163 304.853 34.2523C304.853 34.2523 305.719 28.401 311.571 23.1132C311.571 23.1132 312.264 22.5281 312.654 22.7232C313.131 22.9399 312.936 24.8036 312.546 25.7571C312.199 26.6673 309.599 31.175 309.599 31.175C309.599 31.175 307.973 34.2523 308.428 36.6578C311.506 31.9335 318.505 22.3548 322.84 25.3887C325.592 27.3391 325.592 33.6238 323.533 37.2646C321.908 40.1469 317.314 46.1065 311.181 44.7195L311.137 44.6978ZM320.196 29.983C318.592 31.7167 315.732 35.0108 313.478 39.4751C315.862 39.215 318.18 37.8931 318.896 37.2212C320.044 36.2027 322.688 33.4504 322.276 29.8097C322.276 29.8097 322.016 27.9026 320.196 29.983ZM223.109 47.255C215.437 49.5955 208.199 48.512 204.255 47.4718C204.146 49.0754 203.973 49.7472 203.713 50.0073C203.409 50.354 200.895 51.7843 199.508 49.7472C198.902 48.772 198.598 47.0167 198.425 45.413C189.54 41.3821 185.422 35.4442 185.292 35.2275C185.075 35.0108 183.06 32.9087 185.075 30.3081C186.961 27.9676 193.202 25.6054 198.793 24.6736C199.01 19.9059 199.53 16.2218 200.202 14.5964C201.004 12.646 202.022 14.3797 202.933 15.68C203.669 16.6552 204.124 20.8378 204.168 24.1751C207.809 24.0018 210.019 24.2618 214.072 25.042C219.403 25.9522 222.957 28.6828 222.675 31.7601C222.415 34.7941 219.641 36.051 218.558 36.1377C217.474 36.2244 215.74 35.4225 215.74 35.4225C214.527 34.8591 215.632 34.339 217.041 33.7322C218.601 32.9737 218.254 32.2152 218.254 32.2152C217.691 30.4815 210.778 29.3329 203.908 29.3329C203.908 33.1254 204.059 39.41 204.168 43.0725C208.979 43.9827 212.576 43.7876 212.576 43.7876C212.576 43.7876 230.13 43.2892 230.628 32.0852C231.17 20.8594 213.075 10.1105 199.747 6.72976C186.441 3.24069 178.899 5.71121 178.249 6.03628C177.534 6.38302 178.184 6.51305 178.184 6.51305C178.184 6.51305 178.899 6.62141 180.199 7.05483C181.5 7.48826 180.459 8.1384 180.459 8.1384C178.184 8.91856 175.648 8.46347 175.15 7.42324C174.652 6.4047 175.475 5.47283 176.45 4.10754C177.36 2.69891 178.401 2.74225 178.401 2.74225C194.871 -3.00064 214.982 7.29322 214.982 7.29322C233.792 16.7852 237 27.9459 236.653 32.2802C236.35 36.5494 234.703 43.766 223.109 47.2767V47.255ZM186.917 31.7601C185.054 32.6269 186.354 34.0139 186.354 34.0139C189.865 37.763 194.156 40.1252 198.273 41.5988C198.75 35.0975 198.707 32.7786 198.707 29.5063C192.335 29.9397 188.651 30.9799 186.917 31.7601Z" fill="#597393"/>
<path opacity="0.4" d="M43.5628 18.8435C43.2422 19.0923 37.582 22.2817 37.582 29.3735C37.582 37.5765 44.7844 40.4784 45 40.5503C44.9668 40.7272 43.8558 44.5246 41.2026 48.3939C38.8368 51.7989 36.3659 55.1984 32.6072 55.1984C28.8484 55.1984 27.8811 53.015 23.5419 53.015C19.3134 53.015 17.8099 55.2702 14.3717 55.2702C10.9335 55.2702 8.53458 52.1195 5.77632 48.2502C2.58138 43.7066 0 36.6478 0 29.9484C0 19.2028 6.98686 13.5039 13.8632 13.5039C17.5169 13.5039 20.5626 15.9028 22.8565 15.9028C25.0399 15.9028 28.4449 13.3602 32.6016 13.3602C34.177 13.3602 39.8372 13.5039 43.5628 18.8435ZM30.6283 8.81096C32.3474 6.77128 33.5634 3.94116 33.5634 1.11104C33.5634 0.718585 33.5303 0.320599 33.4584 0C30.6615 0.105024 27.3339 1.86279 25.3274 4.1899C23.752 5.98084 22.2817 8.81096 22.2817 11.6798C22.2817 12.1109 22.3535 12.5421 22.3867 12.6803C22.5636 12.7134 22.851 12.7521 23.1384 12.7521C25.648 12.7521 28.8042 11.0717 30.6283 8.81096Z" fill="#597393"/>
</g>
<defs>
<clipPath id="clip0_1246_7199">
<rect width="1170" height="64" fill="white"/>
</clipPath>
</defs>
</svg>
